<?xml version="1.0" encoding="utf-8"?>
<svg viewBox="50.492 189.81 399.017 120.381" xmlns="http://www.w3.org/2000/svg" xmlns:bx="https://boxy-svg.com">
  <rect x="50.492" y="189.81" width="399.017" height="120.381" style="fill: none;"/>
  <g transform="matrix(1, 0, 0, 1, -0.3072590231895589, 130.19500732421875)">
    <g transform="matrix(0.483392, 0, 0, 0.483392, 62.676277, 96.911728)">
      <svg xmlns="http://www.w3.org/2000/svg" version="1.1" x="0" y="0" viewBox="5 14.725000000000001 90 70.54999999999998" enable-background="new 0 0 100 100" height="103.78507120691539" width="132.39768119946686" class="icon-icon-0" data-fill-palette-color="accent" id="icon-0">
        <g fill="#FFF" data-fill-palette-color="accent">
          <path fill="#FFF" d="M94.994 21.474c-0.444-3.961-2.774-6.293-6.856-6.749L11.553 14.73C7.569 15.181 5.304 17.525 5 21.589l0.002 42.364c0.302 3.922 2.567 6.232 6.666 6.688h31.664v5.616h-6.375c-2.363 0-4.998 0.354-6.612 2.984-0.579 0.943-0.602 1.989-0.066 2.946 1.033 1.848 4.067 3.086 6.253 3.084 0.186 0 0.365-0.009 0.426-0.021l25.776-0.004c0.182 0.019 0.372 0.029 0.572 0.029 2.114 0 5.061-1.116 6.135-2.923 0.575-0.963 0.592-2.053 0.044-3.065-1.462-2.686-4.316-3.03-6.64-3.03h-6.377v-5.616l31.785-0.007c3.965-0.448 6.294-2.744 6.747-6.761L94.994 21.474zM88.138 68.571H55.433c-0.571 0-1.034 0.463-1.034 1.035v7.684c0 0.572 0.463 1.036 1.034 1.036h7.412c2.636 0 4.08 0.583 4.822 1.947 0.203 0.376 0.203 0.68-0.002 1.021-0.643 1.077-2.871 1.912-4.359 1.912-0.122 0-0.239-0.004-0.461-0.022l-26 0.006c-1.598 0.176-4.16-0.94-4.762-2.011-0.168-0.305-0.161-0.553 0.024-0.856 0.896-1.457 2.208-1.996 4.85-1.996h7.408c0.572 0 1.033-0.464 1.033-1.036v-7.684c0-0.572-0.461-1.035-1.033-1.035l-32.579 0.006c-2.997-0.337-4.496-1.855-4.717-4.704L7.065 21.668c0.227-2.993 1.726-4.544 4.603-4.875l76.354-0.008c3.016 0.343 4.579 1.906 4.911 4.804l0.007 42.168C92.601 66.705 91.039 68.238 88.138 68.571z" data-fill-palette-color="accent"/>
          <path fill="#FFF" d="M84.83 19.323H9.99v46.819h39.073 8.489H89.81V19.323h-4.246H84.83zM12.059 64.073V21.391h71.213c-1.02 1.355-2.036 2.712-3.095 4.076l-9.692 12.654c-6.255 8.231-12.541 16.462-18.864 24.691l-0.967 1.261H12.059z" data-fill-palette-color="accent"/>
        </g>
      </svg>
      <g/>
    </g>
    <text style='fill: #FFF; font-family: ui-sans-serif, system-ui, -apple-system, BlinkMacSystemFont, "Segoe UI", Roboto, "Helvetica Neue", Arial, "Noto Sans", sans-serif, "Apple Color Emoji", "Segoe UI Emoji", "Segoe UI Symbol", "Noto Color Emoji" ; font-size: 33px; white-space: pre;' x="140.979" y="127.697">zakelijke-website.nl</text>
  </g>
</svg>