<svg id="visual" viewBox="0 0 960 540" width="960" height="540" xmlns="http://www.w3.org/2000/svg" xmlns:xlink="http://www.w3.org/1999/xlink" version="1.1"><rect x="0" y="0" width="960" height="540" fill="#f6e6f7"></rect><path d="M0 244L17.8 268.8C35.7 293.7 71.3 343.3 106.8 356.7C142.3 370 177.7 347 213.2 350.8C248.7 354.7 284.3 385.3 320 401.2C355.7 417 391.3 418 426.8 411.8C462.3 405.7 497.7 392.3 533.2 366.3C568.7 340.3 604.3 301.7 640 309.5C675.7 317.3 711.3 371.7 746.8 381.5C782.3 391.3 817.7 356.7 853.2 367C888.7 377.3 924.3 432.7 942.2 460.3L960 488L960 541L942.2 541C924.3 541 888.7 541 853.2 541C817.7 541 782.3 541 746.8 541C711.3 541 675.7 541 640 541C604.3 541 568.7 541 533.2 541C497.7 541 462.3 541 426.8 541C391.3 541 355.7 541 320 541C284.3 541 248.7 541 213.2 541C177.7 541 142.3 541 106.8 541C71.3 541 35.7 541 17.8 541L0 541Z" fill="#f3c4ee" stroke-linecap="round" stroke-linejoin="miter"></path></svg>